 <svg fill="white" className="ml-0.5" xmlns="http://www.w3.org/2000/svg" version="1.1" viewBox="0 0 100 100">
    <g>
      <path
        d="M50,53.5c13.3,0,24-10.7,24-24c0-13.3-10.7-24-24-24s-24,10.7-24,24C26,42.8,36.7,53.5,50,53.5z M50,13.5   c8.8,0,16,7.2,16,16c0,8.8-7.2,16-16,16s-16-7.2-16-16C34,20.7,41.2,13.5,50,13.5z" />
      <path
        d="M58.2,59.5H41.8C21.5,59.5,5,73.4,5,90.5c0,2.2,1.8,4,4,4s4-1.8,4-4c0-12.7,12.9-23,28.8-23h16.4c15.9,0,28.8,10.3,28.8,23   c0,2.2,1.8,4,4,4s4-1.8,4-4C95,73.4,78.5,59.5,58.2,59.5z" />
    </g>
  </svg>
