<svg xmlns="http://www.w3.org/2000/svg" xmlns:xlink="http://www.w3.org/1999/xlink" version="1.1" x="0px" y="0px" viewBox="0 0 100 100" enable-background="new 0 0 100 100" xml:space="preserve" stroke="white">
<g>
<path d="M50,73.122c25.417,0,45.601-20.854,46.447-21.742c0.737-0.772,0.737-1.988,0-2.761C95.601,47.732,75.417,26.878,50,26.878   S4.399,47.732,3.553,48.62c-0.737,0.772-0.737,1.988,0,2.761C4.399,52.268,24.583,73.122,50,73.122z M50,30.878   c20.029,0,37.194,14.521,42.13,19.124C87.201,54.605,70.062,69.122,50,69.122c-20.029,0-37.194-14.521-42.13-19.124   C12.799,45.395,29.938,30.878,50,30.878z"/>
</g></svg>
