  <svg xmlns="http://www.w3.org/2000/svg" viewBox="0 0 32 32" x="0px" y="0px">
    <g>
      <path
        d="M25,26a1,1,0,0,1,0-2,3,3,0,0,0,3-3V14a3,3,0,0,0-3-3H12a3,3,0,0,0-3,3v7a3,3,0,0,0,3,3h7a1,1,0,0,1,0,2H12a5,5,0,0,1-5-5V14a5,5,0,0,1,5-5H25a5,5,0,0,1,5,5v7A5,5,0,0,1,25,26Z" />
      <path
        d="M8,19H7a5,5,0,0,1-5-5V7A5,5,0,0,1,7,2H20a5,5,0,0,1,5,5v3a1,1,0,0,1-2,0V7a3,3,0,0,0-3-3H7A3,3,0,0,0,4,7v7a3,3,0,0,0,3,3H8a1,1,0,0,1,0,2Z" />
      <path
        d="M22,30a1,1,0,0,1-.8-.4l-3-4a1,1,0,0,1,1.6-1.2L22,27.33l2.2-2.93a1,1,0,1,1,1.6,1.2l-3,4A1,1,0,0,1,22,30Z" />
      <path d="M24,16H13a1,1,0,0,1,0-2H24a1,1,0,0,1,0,2Z" />
      <path d="M24,21H13a1,1,0,0,1,0-2H24a1,1,0,0,1,0,2Z" />
    </g>
  </svg>
