<svg xmlns="http://www.w3.org/2000/svg" version="1.1" viewBox="0 0 100 100">
    <path
      d="M73.809639,69.729599c-1.1378937,0-2.2644272-0.4979477-3.0302811-1.4554977  c-1.3385925-1.6722946-1.0668945-4.1123276,0.6049194-5.4499702l16.0308685-12.8240356L71.3842773,37.1760635  c-1.671814-1.3376427-1.943512-3.7776794-0.6049194-5.4499664c1.3357468-1.6722889,3.7753067-1.9439831,5.4499664-0.6058674  l19.8156433,15.8519497C96.9641876,47.7082138,97.5,48.8219681,97.5,50.0000954  c0,1.1781311-0.5358124,2.2918854-1.4550323,3.0279198L76.2293243,68.8799667  C75.5145874,69.4517517,74.6587982,69.729599,73.809639,69.729599z" />
    <path
      d="M26.190361,69.729599c-0.8491611,0-1.7040024-0.2778473-2.4196835-0.8496323L3.955029,53.0280151  c-0.9192145-0.7360344-1.4550283-1.8497887-1.4550283-3.0279198c0-1.1781273,0.5358138-2.2918816,1.4550283-3.027916  l19.815649-15.8519497c1.6727619-1.3381157,4.1123238-1.0664215,5.4499664,0.6058674  c1.3385887,1.672287,1.0668945,4.1123238-0.6049213,5.4499664L12.5848522,50.0000954L28.6157227,62.824131  c1.6718159,1.3376427,1.9435101,3.7776756,0.6049213,5.4499702C28.4557362,69.2316513,27.3282547,69.729599,26.190361,69.729599z" />
    <path
      d="M42.0754433,81.6197433c-0.3531075,0-0.7109451-0.0482788-1.0668945-0.1500473  c-2.0590019-0.5883484-3.2518005-2.7344437-2.6629753-4.7939224l15.8528976-55.4822998  c0.5878792-2.0594769,2.7358704-3.2513313,4.7929802-2.6629772c2.0590019,0.5883541,3.2518005,2.7344494,2.6629753,4.7939262  L45.8015289,78.8067245C45.3149414,80.5097809,43.7624054,81.6197433,42.0754433,81.6197433z" />
  </svg>
