<svg xmlns="http://www.w3.org/2000/svg" xmlns:xlink="http://www.w3.org/1999/xlink" version="1.1" x="0px" y="0px" viewBox="0 0 100 100" style="enable-background:new 0 0 100 100;" xml:space="preserve"><path d="M83.4232407,97.5H25.3679085c-0.9818115,0-1.7780762-0.7962646-1.7780762-1.7780762V19.3931999  c0-0.9818115,0.7962646-1.7780743,1.7780762-1.7780743h58.0553322c2.6507416,0,4.8068542,2.1561127,4.8068542,4.8068542v70.2711639  C88.2300949,95.3438873,86.0739822,97.5,83.4232407,97.5z M27.1459827,93.9438477h56.2772598  c0.6896057,0,1.2507095-0.5611038,1.2507095-1.2507019V22.4219799c0-0.6896-0.5611038-1.2507057-1.2507095-1.2507057H27.1459827  V93.9438477z"/><path d="M36.8083115,97.5H21.1052914c-5.147686,0-9.3353891-4.187706-9.3353891-9.3353882  c0-0.9818115,0.7962637-1.7780762,1.7780743-1.7780762s1.7780752,0.7962646,1.7780752,1.7780762  c0,3.1865463,2.5926952,5.7792358,5.7792397,5.7792358h15.7030201c0.9818115,0,1.7780762,0.7962646,1.7780762,1.7780762  S37.790123,97.5,36.8083115,97.5z"/><path d="M13.5479765,89.942688c-0.9818106,0-1.7780743-0.7962646-1.7780743-1.7780762V11.8353891  c0-0.9818106,0.7962637-1.7780752,1.7780743-1.7780752s1.7780752,0.7962646,1.7780752,1.7780752v76.3292236  C15.3260517,89.1464233,14.529788,89.942688,13.5479765,89.942688z"/><path d="M74.1583023,21.1712742c-0.9818115,0-1.7780762-0.7962646-1.7780762-1.7780743V7.4750376  c0-0.782373-0.6365128-1.4188876-1.4193802-1.4188876H21.1052914c-3.1865444,0-5.7792397,2.5926948-5.7792397,5.7792392  c0,3.1870403,2.5926952,5.7797365,5.7792397,5.7797365h4.2626171c0.9818096,0,1.7780743,0.7962627,1.7780743,1.7780743  c0,0.9818096-0.7962646,1.7780743-1.7780743,1.7780743h-4.2626171c-5.147686,0-9.3353891-4.1882-9.3353891-9.335885  S15.9576054,2.5,21.1052914,2.5h49.8555527c2.743515,0,4.9755325,2.2320199,4.9755325,4.9750376v11.9181623  C75.9363785,20.3750095,75.1401138,21.1712742,74.1583023,21.1712742z"/></svg>
