  <svg xmlns="http://www.w3.org/2000/svg" version="1.1" viewBox="0 0 100 100">
    <g>
      <path
        d="M31.0377197,74.7009735c-0.9385891,0-1.7804565-0.6573105-1.9778461-1.6126785   C26.478014,60.5836487,34.21175,52.5182991,40.4265709,46.0379868c4.7521591-4.9544868,7.0231323-7.7130089,6.3450966-10.3753052   c-4.0997887,2.3790436-8.0821266,3.1365242-12.0624962,2.2946587c-1.0116234,3.0402985-3.5697956,5.6739731-7.6370144,7.8526611   c-0.6178303,0.3316154-1.3639641,0.3173065-1.9709377-0.0345421c-4.4037685-2.5616264-6.5276833-5.4459877-7.835392-10.6427689   c-0.1302757-0.5161743-0.051321-1.0629463,0.2191029-1.5208893c5.9769669-10.1226482,14.0590954-16.8215675,20.8473339-21.5924797   c-0.9760933-1.1488094-2.0360756-2.1629-3.066452-3.1029692c-1.1537437-1.0624509-1.5110207-2.6756196-0.9168777-4.1150856   c0.6020393-1.4572308,2.0301552-2.3617699,3.5905228-2.2981117c3.6635551,0.1431077,7.070507,1.4133117,10.3984985,3.8801916   c22.6169319,2.554719,33.8898735,18.019722,34.4553947,47.2571144c0.0740204,3.4868927-1.7172928,6.7596169-4.7926254,8.7497978   c-3.221405,2.0933228-4.5251694,5.383812-3.9833298,10.0560303c0.1292877,1.1088333-0.6652069,2.1120682-1.7745361,2.2408676   c-1.108345,0.1218872-2.1120682-0.6661911-2.2403717-1.775032c-0.7263947-6.2592316,1.2248001-10.9403305,5.7983246-13.913517   c1.8929672-1.225296,2.9953918-3.1967278,2.9499893-5.2757378C78.2208099,26.268404,68.2457123,12.4856539,47.3569298,10.3439741   c-0.37603-0.0389843-0.7342911-0.1820927-1.0333366-0.4145193c-2.487114-1.9309664-4.9801483-3.0210519-7.5935898-3.3151627   c1.4291039,1.3427444,2.8858414,2.8572187,4.1639404,4.718112c0.3039818,0.4436331,0.4184685,0.9894161,0.3197708,1.5179281   c-0.0996819,0.528511-0.4056358,0.9953384-0.849762,1.2973452c-6.6026917,4.4891386-14.9029369,10.8880262-20.9637928,20.797493   c0.9208241,3.2258415,2.195961,5.0447922,4.7610435,6.7349396c3.1503429-1.8979034,4.8261833-4.0469856,4.9850807-6.3988838   c0.0424404-0.632637,0.3799763-1.2090149,0.9109554-1.5559273c0.5309792-0.3474045,1.1942101-0.424881,1.7913132-0.2092323   c4.0918922,1.4754906,8.0831146,0.7101097,12.5579453-2.4140797c0.9030571-0.6316471,2.1485863-0.4209328,2.7950401,0.4737358   c4.5962219,6.3599033-0.717514,11.9016247-5.8565598,17.2602673C37.4953308,54.934845,30.8659916,61.8474388,33.019516,72.2706146   c0.2250252,1.0930405-0.477684,2.1623993-1.5712242,2.3879242C31.3111057,74.6871567,31.1729317,74.7009735,31.0377197,74.7009735z   " />
      <path
        d="M74.9954605,85.8278427H29.4082661c-3.8816719,0-7.0389233-3.1572495-7.0389233-7.0384293v-1.0979843   c0-3.8811798,3.1572514-7.0384293,7.0389233-7.0384293h45.5871964c3.8816757,0,7.0389252,3.1572495,7.0389252,7.0384293v1.0979843   C82.0343857,82.6705933,78.8771362,85.8278427,74.9954605,85.8278427z M29.4082661,74.695549   c-1.652153,0-2.9963779,1.3437271-2.9963779,2.9958801v1.0979843c0,1.652153,1.3442249,2.9958801,2.9963779,2.9958801h45.5871964   c1.652153,0,2.996376-1.3437271,2.996376-2.9958801v-1.0979843c0-1.652153-1.344223-2.9958801-2.996376-2.9958801H29.4082661z" />
      <path
        d="M78.088562,97.5H26.3151665c-1.8090782,0-3.4197788-1.0131073-4.2044029-2.6440353   c-0.783638-1.6309357-0.5684834-3.5224228,0.562561-4.9352417l5.9039307-7.3769531   c0.3839226-0.47966,0.9642506-0.7584763,1.5781326-0.7584763h44.0929489c0.613884,0,1.1942139,0.2788162,1.5781326,0.7584763   l5.9039307,7.3769531c1.1310501,1.412323,1.346199,3.3028259,0.5625687,4.9342499   C81.5093307,96.4864044,79.8986282,97.5,78.088562,97.5z M31.126545,85.8278427l-5.296957,6.6184845   c-0.2023239,0.252655-0.151989,0.4974213-0.0750084,0.6587906c0.0779686,0.1608658,0.2378559,0.3523407,0.5605869,0.3523407   H78.088562c0.3237152,0,0.4836044-0.1919632,0.560585-0.3528366c0.0779724-0.1608734,0.1273193-0.4056396-0.0750046-0.6578064   l-5.2969589-6.6189728H31.126545z" />
    </g>
  </svg>
