 <svg xmlns="http://www.w3.org/2000/svg" version="1.1" viewBox="0 0 100 100">
    <g>
      <path
        d="M78.8,46H39c-2.2,0-4,1.8-4,4s1.8,4,4,4h39.8l-8,8c-1.6,1.6-1.6,4.1,0,5.7c0.8,0.8,1.8,1.2,2.8,1.2s2-0.4,2.8-1.2   l14.8-14.8v-0.5c0.5-0.7,0.7-1.4,0.7-2.3s-0.3-1.7-0.7-2.3v-0.5L76.4,32.3c-1.6-1.6-4.1-1.6-5.7,0c-1.6,1.6-1.6,4.1,0,5.7L78.8,46z   " />
      <path
        d="M52.2,82c5.4,0,9.8-4.4,9.8-9.8V64c0-2.2-1.8-4-4-4s-4,1.8-4,4v8.2c0,1-0.8,1.8-1.8,1.8H17.8c-1,0-1.8-0.8-1.8-1.8V27.8   c0-1,0.8-1.8,1.8-1.8h34.4c1,0,1.8,0.8,1.8,1.8V36c0,2.2,1.8,4,4,4s4-1.8,4-4v-8.2c0-5.4-4.4-9.8-9.8-9.8H17.8   C12.4,18,8,22.4,8,27.8v44.4c0,5.4,4.4,9.8,9.8,9.8H52.2z" />
    </g>
  </svg>
