
<svg xmlns="http://www.w3.org/2000/svg" viewBox="0 0 60 60" x="0px" y="0px"><path d="M58.652,1.353a2.983,2.983,0,0,0-2.818-.261L40.367,7.641a.988.988,0,0,1-.757.006L21.135.216a2.967,2.967,0,0,0-2.281.02L1.834,7.443A3.005,3.005,0,0,0,0,10.218V56.134a3,3,0,0,0,4.166,2.774l15.467-6.549a.988.988,0,0,1,.757-.006l18.475,7.431a2.968,2.968,0,0,0,2.281-.02l17.02-7.207A3.005,3.005,0,0,0,60,49.782V3.866A3.007,3.007,0,0,0,58.652,1.353ZM3.387,57.066a.972.972,0,0,1-.935-.087A1,1,0,0,1,2,56.134V10.218a1.007,1.007,0,0,1,.613-.933L19,2.346V31.291l-3.33,1.166A1,1,0,0,0,16,34.4a.978.978,0,0,0,.33-.056L19,33.409V50.472c-.048.018-.1.025-.146.046ZM21.137,50.5c-.045-.018-.092-.025-.137-.04V33.409l2.67.935A.978.978,0,0,0,24,34.4a1,1,0,0,0,.33-1.943L21,31.291V2.317L38.863,9.5c.045.018.092.024.137.04V37.591l-2.67-.935a1,1,0,0,0-.66,1.887L39,39.709V57.683ZM58,49.782a1.007,1.007,0,0,1-.613.933L41,57.654V9.528c.048-.017.1-.025.146-.046L56.613,2.934a.977.977,0,0,1,.935.087A1,1,0,0,1,58,3.866Z"/><path d="M54.707,34.293a1,1,0,0,0-1.414,0L50,37.586l-3.293-3.293a1,1,0,0,0-1.414,1.414L47.586,38H45a1,1,0,0,0,0,2h2.586l-2.293,2.293a1,1,0,1,0,1.414,1.414L50,40.414l3.293,3.293a1,1,0,0,0,1.414-1.414L51.414,39l3.293-3.293A1,1,0,0,0,54.707,34.293Z"/><path d="M32.33,35.257l-4-1.4a1,1,0,0,0-.66,1.887l4,1.4A.978.978,0,0,0,32,37.2a1,1,0,0,0,.33-1.943Z"/><path d="M11.67,33.856l-4,1.4A1,1,0,0,0,8,37.2a.978.978,0,0,0,.33-.056l4-1.4a1,1,0,0,0-.66-1.887Z"/><path d="M11,18V17a1,1,0,0,0-2,0v1a1,1,0,0,0,2,0Z"/><path d="M13,25h-.775C13.791,23.087,16,19.881,16,17A6,6,0,0,0,4,17c0,2.881,2.209,6.087,3.775,8H7a1,1,0,0,0,0,2h6a1,1,0,0,0,0-2ZM10,13a4,4,0,0,1,4,4c0,2.5-2.46,5.8-4,7.536C8.46,22.8,6,19.5,6,17A4,4,0,0,1,10,13Z"/><path d="M5,29a1,1,0,0,0-1,1v4a1,1,0,0,0,2,0V30A1,1,0,0,0,5,29Z"/></svg>
