  <svg
    xmlns="http://www.w3.org/2000/svg"
    version="1.1"
    x="0px"
    y="0px"
    viewBox="0 0 32 40"
    enable-background="new 0 0 32 32">
    <g>
      <path
        d="M26,12V5c0-1.6542969-1.3457031-3-3-3H9C7.3457031,2,6,3.3457031,6,5v7c-2.2060547,0-4,1.7944336-4,4v10   c0,2.2055664,1.7939453,4,4,4h20c2.2060547,0,4-1.7944336,4-4V16C30,13.7944336,28.2060547,12,26,12z M27.711731,14.9814453   L26,16.1796265V14C26.729248,14,27.3622437,14.3965454,27.711731,14.9814453z M9,4h14c0.5517578,0,1,0.4487305,1,1v12.5795898   l-4.9345703,3.4541016c-1.8066406,1.2646484-4.3242188,1.2646484-6.1308594,0L8,17.5795898V5C8,4.4487305,8.4482422,4,9,4z M6,14   v2.1796265l-1.711731-1.1981812C4.6377563,14.3965454,5.270752,14,6,14z M26,28H6c-1.1025391,0-2-0.8969727-2-2v-8.779541   l7.7880859,5.4519043C13.0283203,23.5410156,14.4853516,24,16,24s2.9716797-0.4589844,4.2119141-1.3276367L28,17.220459V26   C28,27.1030273,27.1025391,28,26,28z" />
      <path
        d="M20,13h-8c-0.5527344,0-1,0.4477539-1,1c0,2.7568359,2.2431641,5,5,5s5-2.2431641,5-5C21,13.4477539,20.5527344,13,20,13z    M16,17c-1.3037109,0-2.4160156-0.8359375-2.8291016-2h5.6582031C18.4160156,16.1640625,17.3037109,17,16,17z" />
      <path
        d="M10.7705078,9.6376953c0.6816406-0.8222656,1.7773438-0.8222656,2.4589844,0   C13.4277344,9.8764648,13.7128906,10,14.0009766,10c0.2246094,0,0.4501953-0.0751953,0.6367188-0.2299805   c0.4257813-0.3520508,0.484375-0.9824219,0.1328125-1.4077148C14.0429688,7.4838867,13.0585938,7,12,7   S9.9570313,7.4838867,9.2294922,8.3623047c-0.3515625,0.425293-0.2929688,1.0556641,0.1328125,1.4077148   C9.7890625,10.1235352,10.4179688,10.0629883,10.7705078,9.6376953z" />
      <path
        d="M18.7705078,9.6376953c0.6816406-0.8222656,1.7773438-0.8222656,2.4589844,0   C21.4277344,9.8764648,21.7128906,10,22.0009766,10c0.2246094,0,0.4501953-0.0751953,0.6367188-0.2299805   c0.4257813-0.3520508,0.484375-0.9824219,0.1328125-1.4077148C22.0429688,7.4838867,21.0585938,7,20,7   s-2.0429688,0.4838867-2.7705078,1.3623047c-0.3515625,0.425293-0.2929688,1.0556641,0.1328125,1.4077148   C17.7880859,10.1235352,18.4179688,10.0629883,18.7705078,9.6376953z" />
    </g>
  </svg>
